{
  "accessors": [
    {
      "bufferView": 2,
      "componentType": 5126,
      "count": 207,
      "max": [
        0.11672700196504593,
        -0.10246899724006653,
        2.7461419105529785
      ],
      "min": [
        -0.11763100326061249,
        -0.4497919976711273,
        2.3913021087646484
      ],
      "type": "VEC3"
    },
    {
      "bufferView": 2,
      "byteOffset": 2484,
      "componentType": 5126,
      "count": 207,
      "max": [
        0.9730242490768433,
        0.9911847114562988,
        0.9753624200820923
      ],
      "min": [
        -0.9941760301589966,
        -0.9575542211532593,
        -0.9768426418304443
      ],
      "type": "VEC3"
    },
    {
      "bufferView": 1,
      "componentType": 5126,
      "count": 207,
      "max": [
        0.9694179892539978,
        0.9728170037269592
      ],
      "min": [
        0.03200399875640869,
        0.02718299999833107
      ],
      "type": "VEC2"
    },
    {
      "bufferView": 0,
      "componentType": 5125,
      "count": 1026,
      "type": "SCALAR"
    },
    {
      "bufferView": 2,
      "byteOffset": 4968,
      "componentType": 5126,
      "count": 3437,
      "max": [
        0.9423919916152954,
        0.5862749814987183,
        2.811990976333618
      ],
      "min": [
        -0.85691899061203,
        -0.61564701795578,
        0.02363399975001812
      ],
      "type": "VEC3"
    },
    {
      "bufferView": 2,
      "byteOffset": 46212,
      "componentType": 5126,
      "count": 3437,
      "max": [
        0.9992177486419678,
        0.9994521737098694,
        0.9965753555297852
      ],
      "min": [
        -0.9991689920425415,
        -0.9999876022338867,
        -0.9986414313316345
      ],
      "type": "VEC3"
    },
    {
      "bufferView": 3,
      "componentType": 5126,
      "count": 3437,
      "max": [
        0.9991078972816467,
        0.999286949634552,
        0.999987006187439,
        1.0
      ],
      "min": [
        -1.0,
        -0.999783992767334,
        -0.9997878670692444,
        -1.0
      ],
      "type": "VEC4"
    },
    {
      "bufferView": 1,
      "byteOffset": 1656,
      "componentType": 5126,
      "count": 3437,
      "max": [
        0.9944130182266235,
        0.9939829707145691
      ],
      "min": [
        0.000623999978415668,
        0.000623999978415668
      ],
      "type": "VEC2"
    },
    {
      "bufferView": 0,
      "byteOffset": 4104,
      "componentType": 5125,
      "count": 14232,
      "type": "SCALAR"
    },
    {
      "bufferView": 2,
      "byteOffset": 87456,
      "componentType": 5126,
      "count": 219,
      "max": [
        0.12444300204515457,
        -0.07319699972867966,
        2.7512450218200684
      ],
      "min": [
        -0.12649600207805634,
        -0.4581339955329895,
        2.332134962081909
      ],
      "type": "VEC3"
    },
    {
      "bufferView": 2,
      "byteOffset": 90084,
      "componentType": 5126,
      "count": 219,
      "max": [
        0.999779999256134,
        0.8868327736854553,
        0.9786850214004517
      ],
      "min": [
        -0.9995718002319336,
        -0.9994369745254517,
        -0.6127041578292847
      ],
      "type": "VEC3"
    },
    {
      "bufferView": 1,
      "byteOffset": 29152,
      "componentType": 5126,
      "count": 219,
      "max": [
        0.9758549928665161,
        0.9758399724960327
      ],
      "min": [
        0.031190000474452972,
        0.017153000459074974
      ],
      "type": "VEC2"
    },
    {
      "bufferView": 0,
      "byteOffset": 61032,
      "componentType": 5125,
      "count": 1014,
      "type": "SCALAR"
    }
  ],
  "asset": {
    "extras": {
      "author": "Vintar (https://sketchfab.com/vintar)",
      "license": "CC-BY-4.0 (http://creativecommons.org/licenses/by/4.0/)",
      "source": "https://sketchfab.com/3d-models/in-space-female-cc360b08e6fc42e2814c6ee781ea0618",
      "title": "In space (female)"
    },
    "generator": "Sketchfab-12.68.0",
    "version": "2.0"
  },
  "bufferViews": [
    {
      "buffer": 0,
      "byteLength": 65088,
      "name": "floatBufferViews",
      "target": 34963
    },
    {
      "buffer": 0,
      "byteLength": 30904,
      "byteOffset": 65088,
      "byteStride": 8,
      "name": "floatBufferViews",
      "target": 34962
    },
    {
      "buffer": 0,
      "byteLength": 92712,
      "byteOffset": 95992,
      "byteStride": 12,
      "name": "floatBufferViews",
      "target": 34962
    },
    {
      "buffer": 0,
      "byteLength": 54992,
      "byteOffset": 188704,
      "byteStride": 16,
      "name": "floatBufferViews",
      "target": 34962
    }
  ],
  "buffers": [
    {
      "byteLength": 243696,
      "uri": "scene.bin"
    }
  ],
  "images": [
    {
      "uri": "textures/head_baseColor.jpeg"
    },
    {
      "uri": "textures/material_flex.002_baseColor.png"
    },
    {
      "uri": "textures/material_flex.002_metallicRoughness.png"
    },
    {
      "uri": "textures/material_flex.002_emissive.png"
    },
    {
      "uri": "textures/material_flex.002_normal.png"
    }
  ],
  "materials": [
    {
      "doubleSided": true,
      "name": "cabello_m",
      "pbrMetallicRoughness": {
        "baseColorFactor": [
          0.0370971093,
          0.0174322105,
          0.0072998292,
          1.0
        ],
        "metallicFactor": 0.0,
        "roughnessFactor": 0.6
      }
    },
    {
      "doubleSided": true,
      "name": "head",
      "pbrMetallicRoughness": {
        "baseColorTexture": {
          "index": 0
        },
        "metallicFactor": 0.0,
        "roughnessFactor": 0.6
      }
    },
    {
      "alphaMode": "BLEND",
      "doubleSided": true,
      "emissiveFactor": [
        1.0,
        1.0,
        1.0
      ],
      "emissiveTexture": {
        "index": 3
      },
      "name": "material_flex.002",
      "normalTexture": {
        "index": 4
      },
      "pbrMetallicRoughness": {
        "baseColorTexture": {
          "index": 1
        },
        "metallicRoughnessTexture": {
          "index": 2
        }
      }
    }
  ],
  "meshes": [
    {
      "name": "Object_0",
      "primitives": [
        {
          "attributes": {
            "NORMAL": 1,
            "POSITION": 0,
            "TEXCOORD_0": 2
          },
          "indices": 3,
          "material": 1,
          "mode": 4
        }
      ]
    },
    {
      "name": "Object_1",
      "primitives": [
        {
          "attributes": {
            "NORMAL": 5,
            "POSITION": 4,
            "TANGENT": 6,
            "TEXCOORD_0": 7
          },
          "indices": 8,
          "material": 2,
          "mode": 4
        }
      ]
    },
    {
      "name": "Object_2",
      "primitives": [
        {
          "attributes": {
            "NORMAL": 10,
            "POSITION": 9,
            "TEXCOORD_0": 11
          },
          "indices": 12,
          "material": 0,
          "mode": 4
        }
      ]
    }
  ],
  "nodes": [
    {
      "children": [
        1
      ],
      "matrix": [
        1.0,
        0.0,
        0.0,
        0.0,
        0.0,
        2.220446049250313e-16,
        -1.0,
        0.0,
        0.0,
        1.0,
        2.220446049250313e-16,
        0.0,
        0.0,
        0.0,
        0.0,
        1.0
      ],
      "name": "Sketchfab_model"
    },
    {
      "children": [
        2,
        3,
        4
      ],
      "name": "20392279f01645dd859aa322d5eae347.obj.cleaner.materialmerger.gles"
    },
    {
      "mesh": 0,
      "name": "Object_2"
    },
    {
      "mesh": 1,
      "name": "Object_3"
    },
    {
      "mesh": 2,
      "name": "Object_4"
    }
  ],
  "samplers": [
    {
      "magFilter": 9729,
      "minFilter": 9987,
      "wrapS": 10497,
      "wrapT": 10497
    }
  ],
  "scene": 0,
  "scenes": [
    {
      "name": "Sketchfab_Scene",
      "nodes": [
        0
      ]
    }
  ],
  "textures": [
    {
      "sampler": 0,
      "source": 0
    },
    {
      "sampler": 0,
      "source": 1
    },
    {
      "sampler": 0,
      "source": 2
    },
    {
      "sampler": 0,
      "source": 3
    },
    {
      "sampler": 0,
      "source": 4
    }
  ]
}
